<svg xmlns="http://www.w3.org/2000/svg" width="45.488" height="45.456" viewBox="0 0 45.488 45.456"><defs><style>.a{fill:#fff;}</style></defs><path class="a" d="M8.15,45.247a1.332,1.332,0,0,0,.941.39h.054a1.332,1.332,0,0,0,.96-.468c3.256-3.826,7.29-8.232,11.748-12.832a14.731,14.731,0,0,0,6.806,7.157,1.6,1.6,0,0,0,1.386-.114,1.332,1.332,0,0,0,.529-1.286,18.664,18.664,0,0,1-.222-2.569,43.51,43.51,0,0,0,5.03.21,1.332,1.332,0,0,0,.579-2.521,11.973,11.973,0,0,1-2.584-1.762,14.725,14.725,0,0,0,3.985-1.208,1.332,1.332,0,0,0,.084-2.371,18.683,18.683,0,0,1-2.157-1.415,43.473,43.473,0,0,0,3.275-3.818,1.332,1.332,0,0,0-1.621-2.015A11.982,11.982,0,0,1,32.55,21.73C37.116,17.383,41.385,13.556,45,10.568A1.332,1.332,0,0,0,45.1,8.6L37.063.57A1.332,1.332,0,0,0,35.1.664c-3.462,4.188-8.051,9.247-13.27,14.629h0C20.46,16.7,15.893,21.278,15,22.152h0C9.788,27.259,4.764,31.888.469,35.536A1.332,1.332,0,0,0,.39,37.493ZM29.221,32.706a1.332,1.332,0,0,0-1.513,1.265q-.036.889-.014,1.738a12.057,12.057,0,0,1-3.8-5.462l.354-.36a14.65,14.65,0,0,0,5.593,1.673,14.723,14.723,0,0,0,1.206,1.353q-.924-.083-1.827-.208Zm4.442-8.4q-.633.67-1.287,1.3a1.332,1.332,0,0,0,.058,1.973q.678.579,1.361,1.088a11.984,11.984,0,0,1-2.541.294A7.745,7.745,0,0,1,28,28.534a12,12,0,0,1-1.774-.638c.37-.37,3.557-3.5,3.673-3.618a14.659,14.659,0,0,0,3.761.025Zm2.548-20.82,5.973,5.968c-3.756,3.161-8.114,7.117-12.729,11.554l-4.806-4.8c4.44-4.612,8.4-8.967,11.562-12.72ZM22.794,18.116l4.747,4.743-5,4.966L17.824,23.11Zm-6.872,6.859,4.755,4.751c-4.366,4.48-8.359,8.8-11.66,12.622L3.291,36.626c3.821-3.3,8.147-7.288,12.631-11.652Z" transform="translate(0 -0.181)"/></svg>