<svg xmlns="http://www.w3.org/2000/svg" width="46.174" height="44.981" viewBox="0 0 46.174 44.981"><defs><style>.a{fill:#fff;}</style></defs><path class="a" d="M43.4,20.6A7.8,7.8,0,0,0,36.6,11.3a7.793,7.793,0,0,0-13.51-1.484A7.793,7.793,0,0,0,9.577,11.3a7.8,7.8,0,0,0-6.8,9.295A7.791,7.791,0,0,0,1.9,31.654,9.7,9.7,0,0,0,9.719,47.1a7.787,7.787,0,0,0,13.368,1.174A7.788,7.788,0,0,0,36.456,47.1a9.705,9.705,0,0,0,7.82-15.446A7.791,7.791,0,0,0,43.4,20.6ZM16.566,48.581A4.886,4.886,0,0,1,12.8,40.595a1.456,1.456,0,1,0-2.244-1.854A7.8,7.8,0,0,0,8.786,44.1a6.777,6.777,0,0,1,0-13.476,7.786,7.786,0,0,0,.377,2.82,1.456,1.456,0,1,0,2.767-.9,4.886,4.886,0,0,1,3.122-6.155,1.456,1.456,0,0,0-.9-2.767,7.9,7.9,0,0,0-.965.389A3.806,3.806,0,0,1,14.295,19.7a1.456,1.456,0,0,0-1.858-2.242A6.711,6.711,0,0,0,10.8,25.788a10.6,10.6,0,0,0-1.292,1.889A9.636,9.636,0,0,0,3.79,29.549a4.878,4.878,0,0,1,1.244-7.179,1.456,1.456,0,0,0,.6-1.725,4.878,4.878,0,0,1,4.809-6.517,1.456,1.456,0,0,0,1.407-1.083,4.881,4.881,0,0,1,9.6,1.253V43.7a4.886,4.886,0,0,1-4.88,4.88ZM42.015,29.549a9.622,9.622,0,0,0-5.745-1.87,7.717,7.717,0,0,0-1.264-1.89,6.71,6.71,0,0,0-1.639-8.331A1.456,1.456,0,0,0,31.51,19.7a3.806,3.806,0,0,1,1.113,4.311,7.905,7.905,0,0,0-.965-.389,1.456,1.456,0,0,0-.9,2.767,4.886,4.886,0,0,1,3.122,6.155,1.456,1.456,0,0,0,2.767.9,7.785,7.785,0,0,0,.377-2.82,6.776,6.776,0,0,1,0,13.476,7.8,7.8,0,0,0-1.772-5.363A1.456,1.456,0,1,0,33,40.594,4.88,4.88,0,1,1,24.358,43.7V14.3a4.881,4.881,0,0,1,9.6-1.253,1.452,1.452,0,0,0,1.455,1.082,4.885,4.885,0,0,1,4.76,6.517,1.456,1.456,0,0,0,.6,1.725,4.878,4.878,0,0,1,1.243,7.179Z" transform="translate(0.001 -6.556)"/></svg>