<svg xmlns="http://www.w3.org/2000/svg" width="46.066" height="46.066" viewBox="0 0 46.066 46.066"><defs><style>.a{fill:#0e1c39;}</style></defs><path class="a" d="M1761.283,484.387a5.568,5.568,0,0,0-5.562-5.562h-13.31a5.568,5.568,0,0,0-5.562,5.562V497.7a5.568,5.568,0,0,0,5.562,5.562h13.31a5.568,5.568,0,0,0,5.562-5.562h0ZM1749.067,498.7a7.654,7.654,0,1,1,7.654-7.654A7.662,7.662,0,0,1,1749.067,498.7Zm9.342-14.243a1.935,1.935,0,1,1,.565-1.367A1.952,1.952,0,0,1,1758.409,484.453Z" transform="translate(-1726.034 -468.009)"/><path class="a" d="M1724.15,443.092a23.033,23.033,0,1,0,23.033,23.033A23.033,23.033,0,0,0,1724.15,443.092ZM1739,472.78a8.207,8.207,0,0,1-8.2,8.2h-13.31a8.206,8.206,0,0,1-8.2-8.2V459.47a8.207,8.207,0,0,1,8.2-8.2h13.31a8.206,8.206,0,0,1,8.2,8.2Z" transform="translate(-1701.117 -443.092)"/><path class="a" d="M1765.648,502.6a5.018,5.018,0,1,0,5.019,5.018A5.025,5.025,0,0,0,1765.648,502.6Z" transform="translate(-1742.615 -484.59)"/></svg>