<svg xmlns="http://www.w3.org/2000/svg" width="45.28" height="45.28" viewBox="0 0 45.28 45.28"><defs><style>.a{fill:#0e1c39;}</style></defs><path class="a" d="M22.64,0A22.64,22.64,0,1,0,45.28,22.64,22.642,22.642,0,0,0,22.64,0ZM16.061,34.225H10.547V17.637h5.514ZM13.3,15.371h-.036a2.874,2.874,0,1,1,.073-5.732,2.875,2.875,0,1,1-.037,5.732ZM35.943,34.225H30.429V25.351c0-2.23-.8-3.751-2.793-3.751a3.018,3.018,0,0,0-2.829,2.016,3.776,3.776,0,0,0-.181,1.346v9.264H19.112s.072-15.032,0-16.588h5.513v2.349a5.474,5.474,0,0,1,4.969-2.738c3.628,0,6.348,2.371,6.348,7.466Zm0,0"/></svg>