<svg xmlns="http://www.w3.org/2000/svg" width="153.87" height="93.139" viewBox="0 0 153.87 93.139"><defs><style>.a{fill:#0e1c39;}</style></defs><g transform="matrix(-0.259, 0.966, -0.966, -0.259, 1595.565, -648.725)"><path class="a" d="M89.019,78.972c4.172-.089,8.359-.224,12.28-2.351,3.746-2.033,6.163-5.505,5.8-11.187-.325-5.074-3.412-9.09-7.736-9.75-13.779-2.1-26.722-8.461-39.972-13.254a5.453,5.453,0,0,1-2.026-1.181c-.85-.847-2.5-1.4-1.592-3.431.72-1.6,2.053-1.3,3.221-.721,1.657.827,3.265,1.834,4.942,2.58,3.087,1.374,5.173-.609,6.721-3.847,1.685-3.528.444-6.345-1.54-8.781a6.948,6.948,0,0,0-2.584-2.2C58.113,21.737,51.789,14.228,45.049,7.557,41.474,4.021,37.621,1.107,33.1.164c-4.016-.838-7.484,1.6-8.083,5.912-.722,5.194,1.655,7.992,5,9.641,3.175,1.567,6.645,2.058,9.6,4.445A24.131,24.131,0,0,1,43.665,23.7c1.484,1.867,3.2,4.165,1.852,7.12-1.241,2.732-3.588,1.651-5.26,1.033-7.2-2.666-13.74-7.188-19.784-12.992-3.106-2.983-6.208-6.02-10.207-6.841-3.7-.76-6.78.375-8.97,4.529S-.041,24.647,1.9,28.5a26.1,26.1,0,0,0,6.975,8.936C28.737,53,48.714,68.251,71.413,75.881,77.189,77.823,83.022,79.2,89.019,78.972Z" transform="translate(1092.568 1211.181) rotate(83)"/><path class="a" d="M.03,7.172c-.39,7.34,3.057,11.579,7.186,15.254,1.321,1.175,2.672,2.292,4.01,3.436C21.543,31.8,31.891,37.681,43.242,39.283c4.72.666,9.489.749,14.239,1.02,1.139.064,2.5.3,2.756-1.925.207-1.839.063-3.525-1.4-4.492-1.977-1.311-3.859-3.017-5.944-3.873-11.458-4.7-21.482-12.886-31.4-21.448-3.57-3.08-7.508-5.431-11.278-8.115C2.94-.667,2.144-.142.03,7.172Z" transform="translate(1075.648 1290.995) rotate(56)"/></g></svg>