<svg xmlns="http://www.w3.org/2000/svg" width="164.771" height="147.865" viewBox="0 0 164.771 147.865"><defs><style>.a{fill:#0e1c39;}</style></defs><g transform="translate(869.422 -673.051) rotate(83)"><g transform="translate(572 731)"><path class="a" d="M3290.607-594.158q14.468,13.295,28.942,26.578c3.534,3.227,7.206,6.12,11.37,7.836,3.061,1.261,5.8,1.259,7.7-2.691,1.836-3.831.439-7.072-1.486-9.916a38.683,38.683,0,0,0-11.693-10.9c-3.626-2.324-7.185-4.848-10.672-7.512-1.116-.852-3.358-1.762-2.156-4.113,1.058-2.071,2.531.138,3.586,1.018,13.659,11.4,27.269,22.9,40.918,34.326,5.647,4.724,11.22,9.735,18.113,10.888,4.157.7,7.778-.827,10.667-4.913,4.268-6.035,3.5-13.756-2.187-19.269-6.927-6.708-14.04-13.086-21.053-19.641-5.365-5.013-10.724-10.037-16.029-15.156-.935-.9-2.7-2.055-1.782-3.758.864-1.606,2.364.178,3.355.875,7.811,5.49,14.787,12.791,22.692,18.1,5.631,3.778,11.239,7.5,17.635,8.731a14,14,0,0,0,6.4-.267c5.876-1.564,7.321-6.925,3.518-13.077a25.666,25.666,0,0,0-9.165-8.676c-6.1-3.6-12.306-6.926-18.424-10.493-1.037-.605-2.91-1.186-2.265-3.232.6-1.9,2.384-.945,3.413-.386,4.544,2.467,9.012,5.179,13.487,7.865,2.238,1.344,4.464,2.744,6.714.209,2.314-2.607,3.082-6.02,2.593-9.893-.879-6.976-4.391-11.014-9.115-13.495-9.61-5.046-19.235-10.034-28.626-15.773a385.569,385.569,0,0,1-36.291-24.9,30.112,30.112,0,0,0-10.483-5.661c-3.34-.9-6.074.35-7.588,4.575-1.533,4.277.418,6.845,2.861,9.1,4.71,4.341,10.242,6.441,15.343,9.715,2.05,1.316,4.146,2.505,5.772,4.691a2.142,2.142,0,0,1,.229,2.638c-.5.741-1.112.626-1.728.229a10.137,10.137,0,0,1-1.038-.625q-13.34-10.932-26.672-21.885-1.654,7.521-3.309,15.043c2.836,2.152,5.643,4.372,8.514,6.438,4.428,3.185,8.977,6.132,12.492,11.06.805,1.129,2.438,2.344,1.549,4-.881,1.64-2.355.163-3.433-.511-7.677-4.8-14.364-11.621-21.252-18.026l-1.6,1.364c-4.39,1.781-5.224,5.922-4.387,11.232a14.068,14.068,0,0,1-.036,2.429c.814,1.254.572,2.7.59,4.185.051,4.216-.2,8.479.692,12.621,4.028,2.265,8.1,4.421,11.723,7.733.76.7,1.952,1.467,1.357,3.092-.769,2.1-2.069.8-2.893.19-3.376-2.505-6.655-5.235-9.97-7.882A147.123,147.123,0,0,0,3290.607-594.158Z" transform="translate(-3277.3 746.041)"/><path class="a" d="M3411.7-550.075c-7.893-2.991-14.178-9.587-20.708-15.693-4.25-3.974-8.219-8.836-13.874-9.258-2.66,1.006-3.6,3.8-4.207,6.946.143,5.771,3.54,8.561,6.344,11.894l8.44,6,5.311,3.227c6.02,2.617,12.083,5,18.427,5.882,2.172-.636,4.606,1.24,6.592-1.182q-.256-1.545-.511-3.087Z" transform="translate(-3361.245 746.041)"/><path class="a" d="M3288.406-517.456c3.191-.4,6.031-1.559,6.992-6.2.684-3.3-1.679-8.281-4.836-10.312a12.059,12.059,0,0,0-6.289-1.583c-4.824-.2-9.591-.524-13.822-4.124-.75-.638-1.647-1.02-2.464-.111-1.007,1.122-.5,2.411-.119,3.63C3270.868-526.615,3280.835-517.552,3288.406-517.456Z" transform="translate(-3158.259 746.041)"/></g></g></svg>