<svg xmlns="http://www.w3.org/2000/svg" width="419.79" height="82.421" viewBox="0 0 419.79 82.421"><defs><style>.a{fill:#ff405e;stroke:rgba(0,0,0,0);stroke-miterlimit:10;}</style></defs><path class="a" d="M-3334.542,334.916h0a11.78,11.78,0,0,1-7.369-3.628,32.739,32.739,0,0,1-4.57-6.656c-.3-.526-.612-1.068-.924-1.6l-5.406-11.508-1.278-2.719-6.39-13.6c-.319-.772-.641-1.557-.952-2.317l-.017-.042-.008-.019c-.792-1.933-1.611-3.931-2.459-5.878l-.03-.069c-.41-.946-.921-2.124-1.918-2.124a1.67,1.67,0,0,0-.7.171c-1.033.479-.583,1.5-.186,2.4.077.175.157.355.221.523q.99,2.582,1.978,5.165l.4,1.037.192.5,1.46,3.816c.482,1.459.964,2.947,1.43,4.385l.007.02c1.116,3.445,2.27,7.008,3.527,10.48,1.144,3.156,1.022,5.774-.384,8.236a.456.456,0,0,0-.508.474,10.507,10.507,0,0,0-1.832,1,6.331,6.331,0,0,1-3.25,1.293l-2.313-1.3-.059-.033-.227.033c-.033-.633-.542-.934-1.035-1.225l-5.752-6.7c-10.6-20.272-17.983-37.554-23.223-54.388-1.732-5.564-2.144-6.886-5.937-7.148h118.682c-.275.223-.323.675-.146,1.382a47.572,47.572,0,0,1,1.864,7.991c.782,4.49,1.59,9.129,4.436,13.427.911-3.385-.066-5.886-1.011-8.3-.287-.733-.557-1.425-.775-2.139a12,12,0,0,1-.514-5.852,8.994,8.994,0,0,1,2.947-4.978,5.375,5.375,0,0,1,2.536-.645,9.179,9.179,0,0,1,4.394,1.465q2.574,3.539,5.146,7.079a14.952,14.952,0,0,0,2.921,5.579q2.222,4.06,4.443,8.121l.713,1.3c4.378,8.006,8.9,16.284,13.42,24.49a37.182,37.182,0,0,1,4.281,11.1,7.59,7.59,0,0,1-.58,4.837,11.14,11.14,0,0,1-3.258,3.844,4.011,4.011,0,0,1-2.516,1.007,6.543,6.543,0,0,1-3.319-1.328c-.336-.211-.682-.427-1.026-.617a26.008,26.008,0,0,1-8.776-7.994,46.5,46.5,0,0,1-5.352-10.62c-.832-2.215-1.76-4.436-2.656-6.584-.383-.916-.816-1.955-1.227-2.96-.632,2.544.173,4.667.951,6.72a17.537,17.537,0,0,1,1.062,3.53c.425,2.789.587,5.634-2.429,7.092a4.933,4.933,0,0,1-2.152.521c-1.53,0-3.035-.769-4.736-2.422-2.731-2.652-4.861-5.984-6.907-10.8-3.316-7.811-6.667-15.764-9.908-23.456l-.064-.152-.512-1.215q-1.722-4.087-3.446-8.174c-.276-.816-.554-1.658-.8-2.4l0-.015c-.658-1.987-1.338-4.042-2.086-6.034-.419-1.115-1.04-1.7-1.8-1.7a1.854,1.854,0,0,0-.619.115c-1.093.39-1.387,1.269-.927,2.769.441,1.437.9,2.9,1.34,4.308l.021.069.126.4q.236.754.471,1.508a9.652,9.652,0,0,1-2.78,5.711A7.727,7.727,0,0,1-3308,271.5a11.34,11.34,0,0,1-3.846-.719,15.684,15.684,0,0,1-4.76-3.144c-.443-.379-.9-.77-1.365-1.139q-.541-1.079-1.084-2.156c-.9-1.781-1.823-3.619-2.709-5.438-.078-.16-.145-.341-.2-.5-.212-.567-.412-1.1-1.031-1.1a1.731,1.731,0,0,0-.6.13,1.519,1.519,0,0,0-.925.771,1.968,1.968,0,0,0,.125,1.518c.839,2.1,1.657,4.242,2.448,6.317l.007.017.025.066c.3.8.616,1.617.927,2.424,2.875,8.655,7.238,16.767,11.458,24.612,1.027,1.908,2.087,3.88,3.111,5.831a37.321,37.321,0,0,1,3.836,9.713,11.475,11.475,0,0,1-.324,6.446,10.179,10.179,0,0,1-4.006,4.825,11.9,11.9,0,0,1-6.665,2.224,11.661,11.661,0,0,1-5.847-1.687,28.257,28.257,0,0,1-6.249-4.815,24.61,24.61,0,0,1-4.467-6.433c-.862-1.791-1.679-3.644-2.469-5.435l-.015-.034c-1.226-2.781-2.494-5.658-3.96-8.373-.211-.391-.419-.806-.62-1.207l-.014-.029c-1.18-2.358-2.4-4.8-5.432-5.559a3.924,3.924,0,0,0-.015,3.24c.061.2.13.423.188.645,1.918,7.369,5.918,13.944,9.448,19.745,2.539,4.17,5.163,8.481,5.639,13.559.267,2.849-.142,4.851-1.287,6.3S-3331.684,334.441-3334.542,334.916Zm-227.519-24.68a9.913,9.913,0,0,1-5.89-2.114c-2.6-1.9-4.658-4.569-6.682-8.641-.832-1.673-1.683-3.373-2.506-5.017l-.075-.15c-4.9-9.785-9.971-19.9-13.9-30.355a69.846,69.846,0,0,0-3.087-6.726l0-.008-.052-.1-.257-.512c-.319-.637-.838-1.485-1.653-1.485a1.459,1.459,0,0,0-.553.118c-1.074.442-.758,1.221-.453,1.975.066.162.128.315.176.465.7,2.188,1.264,3.861,1.821,5.422.937,2.63,1.922,5.343,2.792,7.736l.01.027c1.961,5.4,3.989,10.987,5.833,16.529.9,2.717,1.008,4.837.319,6.482-.66,1.574-2.077,2.769-4.332,3.653a6.062,6.062,0,0,1-2.2.452c-2.339,0-3.956-1.716-5.519-3.377l-.112-.118c-5.347-5.673-8.629-12.683-11.8-19.463-1.334-2.849-2.713-5.8-4.227-8.6-2.076-4.969-3.763-9.075-5.306-12.923h79.387a19.079,19.079,0,0,0,2.464,6.038l.005.01c.352.634.715,1.289,1.037,1.943,1.023,2.078,2.183,4.132,3.306,6.119l.007.013a67.839,67.839,0,0,1,5.5,11.326,16.56,16.56,0,0,1,1.009,7.69,10.787,10.787,0,0,1-3.874,6.792,11.28,11.28,0,0,1-7.615,3.021,16.237,16.237,0,0,1-7.094-1.87,24.461,24.461,0,0,1-8.059-6.357,42.126,42.126,0,0,1-5.492-8.639c-1.211-2.428-2.281-4.977-3.316-7.441-.9-2.151-1.835-4.372-2.861-6.512-.151-.316-.3-.648-.444-.97-.927-2.076-1.886-4.222-4.651-4.749-.74,2.12-.236,3.887.3,5.759l.007.024c2,7.026,5.756,13.3,9.386,19.367q.466.777.93,1.555l.257.43c2.5,4.193,5.088,8.529,5.389,13.645a12.045,12.045,0,0,1-.53,4.938,6.37,6.37,0,0,1-3.373,3.635A9.176,9.176,0,0,1-3562.06,310.236Zm97.955-5.266c-2.48,0-4.687-1.756-6.634-3.305l-.144-.114a28.813,28.813,0,0,1-7.283-8.777,55.717,55.717,0,0,1-4.338-10.619c-.352-1.125-.643-2.3-.923-3.434a27.732,27.732,0,0,0-3.125-8.439,4.731,4.731,0,0,0-.077,4.266c.078.228.158.462.227.693.164.552.339,1.113.509,1.656a38.185,38.185,0,0,1,1.465,5.713c.521,3.531-.621,5.954-3.4,7.2a4.83,4.83,0,0,1-1.976.456c-1.884,0-3.387-1.317-4.765-2.665-3.544-3.469-5.444-8.012-6.969-12.4-1.277-3.679-2.465-7.458-3.613-11.112l0-.008-.012-.039c-.77-2.45-1.567-4.984-2.383-7.464l-.045-.138-.025-.077c-.412-1.267-.8-2.463-2.2-2.859h36.2c.323.695.62,1.326.858,1.834l.009.019c.548,1.166.98,2.087,1.4,3.041,1.368,3.137,2.845,6.29,4.273,9.339,3.812,8.137,7.752,16.55,10.017,25.49,1.23,4.859-.082,8.494-3.9,10.8A5.96,5.96,0,0,1-3464.105,304.969Zm45.643-36.756c-2.05,0-3.773-1.48-5.293-2.785a31.308,31.308,0,0,1-7.027-9.585,5.065,5.065,0,0,0-2.31-2.343h21.319a2.31,2.31,0,0,0-.334.19c-1.28.883-.811,2.269-.314,3.736a8.162,8.162,0,0,1,.52,2.118c.166,3.718-1.194,6.333-4.158,7.993A4.847,4.847,0,0,1-3418.463,268.214Zm210.549-.058h0c-2.13,0-4.562-1.516-7.438-4.634-.442-.479-.907-.953-1.356-1.411-.209-.213-.416-.424-.621-.636-.348-.622-.7-1.258-1.032-1.874l-.029-.052c-.777-1.424-1.582-2.9-2.444-4.3a4,4,0,0,0-2.237-1.745h20.189c.655,2.881,1.171,5.152,1.687,7.422C-3203.075,265.789-3205.273,268.155-3207.914,268.155Zm-24.969-10.082c-1.535,0-3.162-.879-5.276-2.849a6.24,6.24,0,0,0-2.9-1.724h15.433a4.22,4.22,0,0,0-1.888,1.217C-3229.615,257.07-3231.221,258.073-3232.883,258.073Zm-210.284-.1a7.571,7.571,0,0,1-4.838-2.187,7.379,7.379,0,0,1-.815-.868,3.765,3.765,0,0,0-1.819-1.418h14.454a4.9,4.9,0,0,0-1.773,1.4C-3439.646,256.969-3441.35,257.973-3443.167,257.973Z" transform="translate(3620.463 -253)"/></svg>