<svg xmlns="http://www.w3.org/2000/svg" width="81.204" height="129.952" viewBox="0 0 81.204 129.952"><defs><style>.a{fill:#0e1c39;}</style></defs><g transform="translate(-1014.16 -1211.181)"><path class="a" d="M3330.959-640.031c3.558-.076,7.129-.191,10.473-2.005,3.194-1.734,5.256-4.7,4.946-9.541-.277-4.327-2.91-7.752-6.6-8.315-11.751-1.793-22.789-7.216-34.09-11.3a4.65,4.65,0,0,1-1.728-1.007c-.725-.722-2.135-1.2-1.358-2.926.614-1.368,1.751-1.112,2.747-.615,1.413.705,2.785,1.564,4.215,2.2,2.632,1.172,4.412-.519,5.732-3.281,1.438-3.009.379-5.411-1.314-7.489a5.923,5.923,0,0,0-2.2-1.876c-7.18-2.654-12.573-9.058-18.321-14.747-3.049-3.016-6.335-5.5-10.189-6.3a5.6,5.6,0,0,0-6.893,5.042c-.616,4.43,1.412,6.816,4.261,8.222,2.708,1.336,5.667,1.755,8.186,3.791a20.584,20.584,0,0,1,3.455,3.02c1.265,1.592,2.726,3.552,1.58,6.072-1.059,2.33-3.06,1.408-4.486.881a49.366,49.366,0,0,1-16.873-11.08c-2.649-2.544-5.295-5.134-8.705-5.834-3.159-.648-5.782.32-7.65,3.863s-1.14,6.9.518,10.191a22.259,22.259,0,0,0,5.948,7.621c16.937,13.271,33.975,26.279,53.333,32.786A42.031,42.031,0,0,0,3330.959-640.031Z" transform="translate(-17.768 -1933.387) rotate(83)"/><path class="a" d="M3379.941-739.924c-.333,6.26,2.607,9.875,6.129,13.009,1.126,1,2.279,1.955,3.42,2.93,8.8,5.061,17.624,10.08,27.3,11.446,4.026.568,8.093.639,12.144.87.971.055,2.136.255,2.35-1.642.177-1.568.053-3.006-1.191-3.831-1.686-1.118-3.291-2.573-5.069-3.3-9.772-4.006-18.321-10.99-26.78-18.292-3.045-2.627-6.4-4.632-9.618-6.921C3382.423-746.61,3381.744-746.162,3379.941-739.924Z" transform="translate(-1441.921 -1105.646) rotate(56)"/></g></svg>