<svg xmlns="http://www.w3.org/2000/svg" width="164.352" height="57.735" viewBox="0 0 164.352 57.735"><defs><style>.a{fill:#ff405e;stroke:rgba(0,0,0,0);stroke-miterlimit:10;}</style></defs><path class="a" d="M-3642.343,257.236a9.913,9.913,0,0,1-5.89-2.113c-2.6-1.905-4.659-4.571-6.682-8.641-.822-1.653-1.69-3.388-2.506-5.017l-.075-.15c-4.9-9.783-9.97-19.9-13.9-30.354a69.847,69.847,0,0,0-3.072-6.7l-.015-.03,0-.007-.051-.1c-.086-.171-.172-.341-.257-.512-.32-.637-.839-1.485-1.653-1.485a1.462,1.462,0,0,0-.553.118c-1.074.442-.758,1.221-.453,1.974l.013.032c.06.15.117.292.163.434.7,2.173,1.26,3.846,1.821,5.422.917,2.574,1.883,5.235,2.735,7.582l.032.088.024.066.01.027.04.11c1.945,5.36,3.957,10.9,5.792,16.42.9,2.716,1.008,4.837.319,6.482-.661,1.575-2.078,2.769-4.333,3.652a6.07,6.07,0,0,1-2.2.452c-2.34,0-3.956-1.716-5.52-3.376l-.111-.118c-5.348-5.674-8.629-12.684-11.8-19.463l0-.01c-1.331-2.844-2.708-5.786-4.222-8.594-2.068-4.948-3.754-9.054-5.307-12.923h79.388a19.082,19.082,0,0,0,2.463,6.038l.006.01c.313.562.7,1.261,1.037,1.943,1.022,2.076,2.182,4.129,3.3,6.114l.01.019a67.745,67.745,0,0,1,5.5,11.326,16.557,16.557,0,0,1,1.008,7.69,10.783,10.783,0,0,1-3.874,6.793,11.277,11.277,0,0,1-7.614,3.021,16.243,16.243,0,0,1-7.094-1.87,24.485,24.485,0,0,1-8.059-6.357,42.128,42.128,0,0,1-5.491-8.639c-1.208-2.421-2.275-4.962-3.307-7.419l-.009-.022-.012-.03c-.9-2.141-1.828-4.353-2.849-6.482-.15-.313-.3-.639-.437-.955l-.007-.015c-.927-2.076-1.885-4.222-4.65-4.749-.74,2.12-.236,3.887.3,5.758l.007.024c2,7.019,5.748,13.286,9.374,19.347l.012.021q.467.777.93,1.555l.257.43c2.5,4.194,5.088,8.53,5.389,13.645a12.034,12.034,0,0,1-.53,4.937,6.37,6.37,0,0,1-3.373,3.634A9.17,9.17,0,0,1-3642.343,257.236Zm97.955-5.266c-2.482,0-4.688-1.756-6.635-3.306l-.143-.113a28.823,28.823,0,0,1-7.284-8.777,55.744,55.744,0,0,1-4.338-10.619c-.354-1.131-.642-2.3-.92-3.424l0-.01a27.752,27.752,0,0,0-3.125-8.439,4.734,4.734,0,0,0-.077,4.267c.081.235.159.464.227.692.153.515.319,1.046.465,1.516l.043.14,0,.013a38.145,38.145,0,0,1,1.461,5.7c.521,3.532-.622,5.954-3.4,7.2a4.825,4.825,0,0,1-1.976.456c-1.882,0-3.386-1.317-4.765-2.665-3.546-3.473-5.445-8.014-6.969-12.4-1.279-3.685-2.465-7.46-3.613-11.111l0-.009-.012-.039-.011-.035c-.719-2.29-1.535-4.885-2.372-7.429l-.044-.138-.025-.076c-.413-1.267-.8-2.464-2.2-2.859h36.2c.308.664.6,1.287.815,1.742l.043.092.009.02,0,.007c.522,1.11.973,2.069,1.393,3.034,1.362,3.122,2.831,6.259,4.252,9.293l.021.046,0,0c3.81,8.134,7.75,16.546,10.015,25.485,1.23,4.859-.082,8.494-3.9,10.8A5.952,5.952,0,0,1-3544.388,251.97Z" transform="translate(3700.746 -200)"/></svg>